<svg xmlns="http://www.w3.org/2000/svg" xmlns:xlink="http://www.w3.org/1999/xlink" width="250" zoomAndPan="magnify" viewBox="0 0 187.5 52.499999" height="70" preserveAspectRatio="xMidYMid meet" version="1.0"><defs><g/><clipPath id="c32b15e178"><path d="M 3.707031 2.410156 L 51.378906 2.410156 L 51.378906 50.082031 L 3.707031 50.082031 Z M 3.707031 2.410156 " clip-rule="nonzero"/></clipPath></defs><g fill="#1f4372" fill-opacity="1"><g transform="translate(53.559529, 20.889034)"><g><path d="M 13.734375 0 L 11.5 -5.703125 L 4.3125 -5.703125 L 2.109375 0 L 0 0 L 7.09375 -18.015625 L 8.84375 -18.015625 L 15.90625 0 Z M 10.859375 -7.578125 L 8.765625 -13.140625 C 8.492188 -13.835938 8.21875 -14.703125 7.9375 -15.734375 C 7.757812 -14.941406 7.503906 -14.078125 7.171875 -13.140625 L 5.046875 -7.578125 Z M 10.859375 -7.578125 "/></g></g></g><g fill="#1f4372" fill-opacity="1"><g transform="translate(68.826476, 20.889034)"><g><path d="M 18.03125 -9 C 18.03125 -6.695312 17.566406 -4.785156 16.640625 -3.265625 C 15.722656 -1.742188 14.421875 -0.710938 12.734375 -0.171875 L 17 4.265625 L 13.96875 4.265625 L 10.484375 0.21875 L 9.796875 0.25 C 7.160156 0.25 5.125 -0.554688 3.6875 -2.171875 C 2.25 -3.785156 1.53125 -6.066406 1.53125 -9.015625 C 1.53125 -11.929688 2.25 -14.191406 3.6875 -15.796875 C 5.132812 -17.410156 7.179688 -18.21875 9.828125 -18.21875 C 12.398438 -18.21875 14.410156 -17.398438 15.859375 -15.765625 C 17.304688 -14.128906 18.03125 -11.875 18.03125 -9 Z M 3.734375 -9 C 3.734375 -6.5625 4.25 -4.710938 5.28125 -3.453125 C 6.320312 -2.203125 7.828125 -1.578125 9.796875 -1.578125 C 11.785156 -1.578125 13.285156 -2.203125 14.296875 -3.453125 C 15.316406 -4.710938 15.828125 -6.5625 15.828125 -9 C 15.828125 -11.40625 15.320312 -13.234375 14.3125 -14.484375 C 13.300781 -15.734375 11.804688 -16.359375 9.828125 -16.359375 C 7.835938 -16.359375 6.320312 -15.726562 5.28125 -14.46875 C 4.25 -13.21875 3.734375 -11.394531 3.734375 -9 Z M 3.734375 -9 "/></g></g></g><g fill="#1f4372" fill-opacity="1"><g transform="translate(87.760591, 20.889034)"><g><path d="M 16.015625 -17.9375 L 16.015625 -6.328125 C 16.015625 -4.285156 15.394531 -2.675781 14.15625 -1.5 C 12.925781 -0.332031 11.226562 0.25 9.0625 0.25 C 6.90625 0.25 5.234375 -0.335938 4.046875 -1.515625 C 2.867188 -2.691406 2.28125 -4.3125 2.28125 -6.375 L 2.28125 -17.9375 L 4.375 -17.9375 L 4.375 -6.234375 C 4.375 -4.734375 4.78125 -3.582031 5.59375 -2.78125 C 6.414062 -1.976562 7.617188 -1.578125 9.203125 -1.578125 C 10.710938 -1.578125 11.875 -1.976562 12.6875 -2.78125 C 13.507812 -3.59375 13.921875 -4.75 13.921875 -6.25 L 13.921875 -17.9375 Z M 16.015625 -17.9375 "/></g></g></g><g fill="#1f4372" fill-opacity="1"><g transform="translate(105.419168, 20.889034)"><g><path d="M 13.734375 0 L 11.5 -5.703125 L 4.3125 -5.703125 L 2.109375 0 L 0 0 L 7.09375 -18.015625 L 8.84375 -18.015625 L 15.90625 0 Z M 10.859375 -7.578125 L 8.765625 -13.140625 C 8.492188 -13.835938 8.21875 -14.703125 7.9375 -15.734375 C 7.757812 -14.941406 7.503906 -14.078125 7.171875 -13.140625 L 5.046875 -7.578125 Z M 10.859375 -7.578125 "/></g></g></g><g fill="#1f4372" fill-opacity="1"><g transform="translate(120.686115, 20.889034)"><g><path d="M 4.546875 -7.453125 L 4.546875 0 L 2.46875 0 L 2.46875 -17.9375 L 7.390625 -17.9375 C 9.585938 -17.9375 11.210938 -17.515625 12.265625 -16.671875 C 13.316406 -15.828125 13.84375 -14.5625 13.84375 -12.875 C 13.84375 -10.5 12.640625 -8.894531 10.234375 -8.0625 L 15.109375 0 L 12.640625 0 L 8.296875 -7.453125 Z M 4.546875 -9.25 L 7.40625 -9.25 C 8.882812 -9.25 9.960938 -9.539062 10.640625 -10.125 C 11.328125 -10.707031 11.671875 -11.585938 11.671875 -12.765625 C 11.671875 -13.941406 11.320312 -14.789062 10.625 -15.3125 C 9.925781 -15.84375 8.804688 -16.109375 7.265625 -16.109375 L 4.546875 -16.109375 Z M 4.546875 -9.25 "/></g></g></g><g fill="#1f4372" fill-opacity="1"><g transform="translate(135.585114, 20.889034)"><g><path d="M 2.46875 0 L 2.46875 -17.9375 L 4.546875 -17.9375 L 4.546875 0 Z M 2.46875 0 "/></g></g></g><g fill="#1f4372" fill-opacity="1"><g transform="translate(141.960102, 20.889034)"><g><path d="M 16.015625 -17.9375 L 16.015625 -6.328125 C 16.015625 -4.285156 15.394531 -2.675781 14.15625 -1.5 C 12.925781 -0.332031 11.226562 0.25 9.0625 0.25 C 6.90625 0.25 5.234375 -0.335938 4.046875 -1.515625 C 2.867188 -2.691406 2.28125 -4.3125 2.28125 -6.375 L 2.28125 -17.9375 L 4.375 -17.9375 L 4.375 -6.234375 C 4.375 -4.734375 4.78125 -3.582031 5.59375 -2.78125 C 6.414062 -1.976562 7.617188 -1.578125 9.203125 -1.578125 C 10.710938 -1.578125 11.875 -1.976562 12.6875 -2.78125 C 13.507812 -3.59375 13.921875 -4.75 13.921875 -6.25 L 13.921875 -17.9375 Z M 16.015625 -17.9375 "/></g></g></g><g fill="#1f4372" fill-opacity="1"><g transform="translate(159.618683, 20.889034)"><g><path d="M 10.40625 0 L 4.3125 -15.90625 L 4.21875 -15.90625 C 4.332031 -14.644531 4.390625 -13.144531 4.390625 -11.40625 L 4.390625 0 L 2.46875 0 L 2.46875 -17.9375 L 5.609375 -17.9375 L 11.28125 -3.140625 L 11.390625 -3.140625 L 17.109375 -17.9375 L 20.234375 -17.9375 L 20.234375 0 L 18.140625 0 L 18.140625 -11.5625 C 18.140625 -12.882812 18.195312 -14.320312 18.3125 -15.875 L 18.21875 -15.875 L 12.078125 0 Z M 10.40625 0 "/></g></g></g><g fill="#f26849" fill-opacity="1"><g transform="translate(52.802847, 49.158121)"><g><path d="M 22.71875 0 L 16.671875 0 L 6.921875 -16.953125 L 6.78125 -16.953125 C 6.820312 -16.253906 6.859375 -15.546875 6.890625 -14.828125 C 6.921875 -14.109375 6.953125 -13.394531 6.984375 -12.6875 C 7.015625 -11.976562 7.039062 -11.265625 7.0625 -10.546875 L 7.0625 0 L 2.828125 0 L 2.828125 -22.421875 L 8.8125 -22.421875 L 18.5625 -5.625 L 18.65625 -5.625 C 18.632812 -6.320312 18.609375 -7.007812 18.578125 -7.6875 C 18.554688 -8.375 18.53125 -9.0625 18.5 -9.75 C 18.476562 -10.4375 18.457031 -11.125 18.4375 -11.8125 L 18.4375 -22.421875 L 22.71875 -22.421875 Z M 22.71875 0 "/></g></g></g><g fill="#f26849" fill-opacity="1"><g transform="translate(84.616917, 49.158121)"><g><path d="M 15.734375 0 L 2.828125 0 L 2.828125 -22.421875 L 15.734375 -22.421875 L 15.734375 -18.53125 L 7.578125 -18.53125 L 7.578125 -13.609375 L 15.171875 -13.609375 L 15.171875 -9.703125 L 7.578125 -9.703125 L 7.578125 -3.921875 L 15.734375 -3.921875 Z M 15.734375 0 "/></g></g></g><g fill="#f26849" fill-opacity="1"><g transform="translate(108.487683, 49.158121)"><g><path d="M 20.953125 0 L 15.515625 0 L 10.3125 -8.484375 L 5.09375 0 L 0 0 L 7.4375 -11.5625 L 0.46875 -22.421875 L 5.71875 -22.421875 L 10.546875 -14.359375 L 15.296875 -22.421875 L 20.40625 -22.421875 L 13.375 -11.296875 Z M 20.953125 0 "/></g></g></g><g fill="#f26849" fill-opacity="1"><g transform="translate(135.716715, 49.158121)"><g><path d="M 21.078125 -22.421875 L 21.078125 -7.90625 C 21.078125 -6.363281 20.734375 -4.972656 20.046875 -3.734375 C 19.367188 -2.492188 18.34375 -1.507812 16.96875 -0.78125 C 15.59375 -0.0507812 13.863281 0.3125 11.78125 0.3125 C 8.8125 0.3125 6.550781 -0.441406 5 -1.953125 C 3.445312 -3.472656 2.671875 -5.476562 2.671875 -7.96875 L 2.671875 -22.421875 L 7.40625 -22.421875 L 7.40625 -8.6875 C 7.40625 -6.84375 7.78125 -5.546875 8.53125 -4.796875 C 9.289062 -4.054688 10.414062 -3.6875 11.90625 -3.6875 C 12.945312 -3.6875 13.789062 -3.863281 14.4375 -4.21875 C 15.082031 -4.570312 15.554688 -5.125 15.859375 -5.875 C 16.171875 -6.625 16.328125 -7.570312 16.328125 -8.71875 L 16.328125 -22.421875 Z M 21.078125 -22.421875 "/></g></g></g><g fill="#f26849" fill-opacity="1"><g transform="translate(165.73663, 49.158121)"><g><path d="M 16.0625 -6.21875 C 16.0625 -4.894531 15.738281 -3.738281 15.09375 -2.75 C 14.445312 -1.769531 13.503906 -1.015625 12.265625 -0.484375 C 11.035156 0.046875 9.546875 0.3125 7.796875 0.3125 C 7.015625 0.3125 6.253906 0.257812 5.515625 0.15625 C 4.773438 0.0507812 4.0625 -0.0976562 3.375 -0.296875 C 2.695312 -0.492188 2.050781 -0.742188 1.4375 -1.046875 L 1.4375 -5.453125 C 2.5 -4.984375 3.601562 -4.5625 4.75 -4.1875 C 5.894531 -3.8125 7.03125 -3.625 8.15625 -3.625 C 8.9375 -3.625 9.5625 -3.722656 10.03125 -3.921875 C 10.507812 -4.128906 10.851562 -4.410156 11.0625 -4.765625 C 11.28125 -5.128906 11.390625 -5.539062 11.390625 -6 C 11.390625 -6.5625 11.203125 -7.039062 10.828125 -7.4375 C 10.453125 -7.832031 9.929688 -8.203125 9.265625 -8.546875 C 8.609375 -8.898438 7.863281 -9.273438 7.03125 -9.671875 C 6.507812 -9.921875 5.941406 -10.222656 5.328125 -10.578125 C 4.722656 -10.929688 4.144531 -11.363281 3.59375 -11.875 C 3.039062 -12.382812 2.585938 -13.003906 2.234375 -13.734375 C 1.878906 -14.460938 1.703125 -15.335938 1.703125 -16.359375 C 1.703125 -17.703125 2.007812 -18.847656 2.625 -19.796875 C 3.238281 -20.742188 4.113281 -21.46875 5.25 -21.96875 C 6.394531 -22.476562 7.742188 -22.734375 9.296875 -22.734375 C 10.460938 -22.734375 11.570312 -22.597656 12.625 -22.328125 C 13.6875 -22.054688 14.796875 -21.664062 15.953125 -21.15625 L 14.421875 -17.46875 C 13.378906 -17.882812 12.445312 -18.207031 11.625 -18.4375 C 10.8125 -18.664062 9.984375 -18.78125 9.140625 -18.78125 C 8.546875 -18.78125 8.039062 -18.6875 7.625 -18.5 C 7.207031 -18.3125 6.890625 -18.046875 6.671875 -17.703125 C 6.453125 -17.359375 6.34375 -16.960938 6.34375 -16.515625 C 6.34375 -15.984375 6.5 -15.535156 6.8125 -15.171875 C 7.125 -14.804688 7.59375 -14.457031 8.21875 -14.125 C 8.851562 -13.789062 9.640625 -13.394531 10.578125 -12.9375 C 11.722656 -12.394531 12.703125 -11.828125 13.515625 -11.234375 C 14.328125 -10.648438 14.953125 -9.960938 15.390625 -9.171875 C 15.835938 -8.378906 16.0625 -7.394531 16.0625 -6.21875 Z M 16.0625 -6.21875 "/></g></g></g><g clip-path="url(#c32b15e178)"><path fill="#f26849" d="M 27.542969 2.410156 C 14.378906 2.410156 3.707031 13.082031 3.707031 26.246094 C 3.707031 39.410156 14.378906 50.082031 27.542969 50.082031 C 40.710938 50.082031 51.378906 39.410156 51.378906 26.246094 C 51.378906 13.082031 40.710938 2.410156 27.542969 2.410156 Z M 43.027344 36.140625 C 39.710938 41.183594 34.152344 44.183594 28.066406 44.183594 C 21.824219 44.183594 16.136719 41.03125 12.851562 35.746094 C 12.671875 35.460938 12.671875 35.101562 12.851562 34.816406 C 16.007812 29.738281 21.386719 26.628906 27.339844 26.394531 C 27.679688 25.003906 28.746094 22.09375 31.890625 20.742188 C 32.152344 20.632812 32.453125 20.652344 32.699219 20.804688 C 32.941406 20.953125 33.097656 21.214844 33.113281 21.5 C 33.128906 21.761719 33.289062 22.996094 34.511719 23.214844 C 35.589844 21.832031 36.234375 20.097656 36.234375 18.210938 C 36.234375 16.910156 35.925781 15.679688 35.378906 14.589844 C 34.488281 13.324219 32.972656 13.242188 31.933594 13.558594 C 31.09375 13.816406 30.128906 14.464844 30.003906 15.480469 C 30.4375 16.226562 31.109375 16.867188 32.046875 17.175781 C 32.367188 17.277344 32.597656 17.554688 32.644531 17.886719 C 32.691406 18.21875 32.542969 18.546875 32.265625 18.734375 C 31.328125 19.371094 30.246094 19.703125 29.140625 19.703125 C 28.746094 19.703125 28.34375 19.660156 27.949219 19.574219 C 26.390625 19.238281 25.023438 18.28125 24.199219 16.949219 C 23.175781 15.289062 21.519531 16.023438 21.199219 16.191406 C 20.917969 16.332031 20.582031 16.316406 20.320312 16.148438 C 20.058594 15.980469 19.902344 15.6875 19.914062 15.375 C 20.101562 11.015625 23.222656 8.304688 28.066406 8.304688 C 28.066406 8.304688 28.066406 8.308594 28.066406 8.308594 C 28.070312 8.308594 28.070312 8.304688 28.070312 8.304688 C 37.964844 8.308594 46.015625 16.351562 46.015625 26.238281 C 46.015625 27.746094 45.824219 29.238281 45.457031 30.675781 C 45.851562 30.589844 46.253906 30.460938 46.542969 30.277344 C 46.824219 30.101562 47.175781 30.09375 47.460938 30.261719 C 47.742188 30.429688 47.910156 30.738281 47.890625 31.070312 C 47.792969 32.753906 46.644531 35.878906 43.027344 36.140625 " fill-opacity="1" fill-rule="nonzero"/></g><path fill="#ffffff" d="M 27.363281 29.644531 C 25.757812 29.714844 24.148438 30.039062 22.589844 30.589844 C 21.03125 31.144531 19.527344 31.917969 18.105469 32.839844 C 16.953125 33.589844 15.855469 34.433594 14.796875 35.332031 C 15.894531 34.40625 17.058594 33.554688 18.304688 32.816406 C 19.835938 31.914062 21.492188 31.191406 23.242188 30.75 C 24.992188 30.300781 26.828125 30.140625 28.644531 30.253906 C 29.878906 30.328125 31.097656 30.523438 32.300781 30.8125 C 32.15625 30.539062 31.996094 30.28125 31.820312 30.042969 C 30.363281 29.726562 28.867188 29.574219 27.363281 29.644531 Z M 34.558594 28.507812 C 34.746094 28.113281 35.191406 27.921875 35.605469 28.042969 C 36.578125 27.136719 37.363281 25.976562 37.921875 24.695312 C 38.558594 23.230469 38.90625 21.605469 38.929688 19.964844 C 38.953125 18.320312 38.652344 16.652344 37.980469 15.117188 C 37.507812 14.03125 36.839844 13.023438 36.007812 12.148438 C 35.949219 12.113281 35.886719 12.078125 35.824219 12.042969 C 35.863281 12.09375 35.902344 12.144531 35.941406 12.195312 C 36.289062 12.558594 36.605469 12.957031 36.890625 13.378906 C 38.039062 15.074219 38.601562 17.164062 38.601562 19.261719 C 38.597656 21.363281 38 23.5 36.886719 25.363281 C 36.003906 26.867188 34.777344 28.152344 33.386719 29.210938 C 33.554688 29.460938 33.710938 29.722656 33.859375 30 Z M 17.652344 32.246094 C 18.777344 31.257812 19.992188 30.355469 21.3125 29.59375 C 18.644531 30.8125 16.328125 32.757812 14.640625 35.28125 C 14.640625 35.285156 14.644531 35.285156 14.644531 35.289062 C 15.582031 34.21875 16.570312 33.191406 17.652344 32.246094 Z M 44.082031 23.859375 C 44.058594 23.863281 44.035156 23.867188 44.007812 23.867188 C 43.480469 23.867188 43.050781 23.441406 43.050781 22.914062 C 43.050781 22.496094 43.324219 22.144531 43.695312 22.015625 C 42.644531 18.132812 40.179688 14.828125 36.886719 12.683594 C 39.066406 14.703125 40.664062 17.402344 41.316406 20.378906 C 41.730469 22.285156 41.742188 24.3125 41.269531 26.25 C 40.855469 27.984375 40.046875 29.621094 38.96875 31.054688 C 39.519531 32.214844 39.710938 33.703125 39.144531 35.539062 C 39.027344 35.914062 38.683594 36.160156 38.304688 36.160156 C 38.253906 36.160156 38.199219 36.15625 38.148438 36.144531 L 34.652344 35.507812 C 34.417969 36.738281 33.914062 37.90625 33.144531 38.886719 C 32.972656 39.105469 32.714844 39.222656 32.457031 39.222656 C 32.265625 39.222656 32.074219 39.160156 31.914062 39.035156 C 31.53125 38.734375 31.464844 38.183594 31.765625 37.800781 C 32.859375 36.40625 33.273438 34.507812 32.949219 32.707031 C 31.515625 32.164062 30.035156 31.746094 28.519531 31.53125 C 26.835938 31.289062 25.113281 31.296875 23.421875 31.585938 C 21.730469 31.871094 20.074219 32.433594 18.507812 33.195312 C 17.199219 33.828125 15.953125 34.601562 14.761719 35.457031 C 17.777344 39.835938 22.691406 42.429688 28.066406 42.429688 C 33.695312 42.429688 38.828125 39.582031 41.792969 34.816406 C 42.222656 34.136719 42.597656 33.421875 42.917969 32.6875 C 42.453125 32.621094 42.097656 32.226562 42.097656 31.746094 C 42.097656 31.21875 42.523438 30.792969 43.050781 30.792969 C 43.238281 30.792969 43.414062 30.847656 43.5625 30.941406 C 44.019531 29.425781 44.257812 27.847656 44.257812 26.238281 C 44.257812 25.429688 44.195312 24.636719 44.082031 23.859375 Z M 23.882812 35.636719 C 23.054688 35.636719 22.382812 34.964844 22.382812 34.136719 C 22.382812 33.308594 23.054688 32.636719 23.882812 32.636719 C 24.710938 32.636719 25.378906 33.308594 25.378906 34.136719 C 25.378906 34.964844 24.710938 35.636719 23.882812 35.636719 Z M 42.535156 28.597656 C 42.007812 28.597656 41.582031 28.171875 41.582031 27.644531 C 41.582031 27.117188 42.007812 26.6875 42.535156 26.6875 C 43.0625 26.6875 43.492188 27.117188 43.492188 27.644531 C 43.492188 28.171875 43.0625 28.597656 42.535156 28.597656 Z M 37.570312 29.214844 C 37.726562 29.351562 37.878906 29.503906 38.027344 29.660156 C 38.921875 28.550781 39.628906 27.289062 40.066406 25.914062 C 40.621094 24.203125 40.757812 22.34375 40.496094 20.527344 C 40.3125 19.238281 39.933594 17.972656 39.394531 16.773438 C 39.757812 17.777344 39.996094 18.835938 40.101562 19.910156 C 40.28125 21.699219 40.113281 23.539062 39.574219 25.300781 C 39.152344 26.683594 38.488281 28.027344 37.570312 29.214844 Z M 44.867188 32.554688 C 44.675781 33.0625 44.460938 33.5625 44.222656 34.050781 C 45.03125 33.664062 45.5 33.015625 45.769531 32.410156 C 45.425781 32.480469 45.113281 32.527344 44.867188 32.554688 Z M 31.65625 22.863281 C 30.191406 23.84375 29.503906 25.308594 29.1875 26.300781 C 30.671875 26.09375 32.03125 25.488281 33.152344 24.59375 C 32.394531 24.183594 31.921875 23.515625 31.65625 22.863281 Z M 35.769531 30.0625 L 34.671875 32.390625 C 34.753906 32.839844 34.792969 33.296875 34.800781 33.75 L 37.648438 34.269531 C 38.074219 31.882812 36.6875 30.621094 35.769531 30.0625 Z M 27.046875 15.5 C 27.230469 16.34375 27.574219 17.144531 28.054688 17.789062 C 28.144531 17.8125 28.226562 17.839844 28.316406 17.855469 C 28.804688 17.960938 29.296875 17.972656 29.773438 17.890625 C 29.203125 17.417969 28.742188 16.839844 28.398438 16.207031 C 28.347656 16.136719 28.3125 16.058594 28.28125 15.976562 C 27.621094 14.632812 27.460938 13.082031 27.847656 11.789062 C 28.054688 11.09375 28.398438 10.527344 28.84375 10.101562 C 28.832031 10.101562 28.820312 10.097656 28.804688 10.097656 C 28.714844 10.144531 28.625 10.195312 28.539062 10.253906 C 27.726562 10.800781 27.253906 11.707031 27.039062 12.640625 C 26.820312 13.582031 26.84375 14.574219 27.046875 15.5 Z M 25.03125 13.238281 C 24.84375 13.828125 24.785156 14.441406 24.859375 15.027344 C 25.152344 15.28125 25.429688 15.601562 25.675781 15.996094 C 25.664062 15.894531 25.652344 15.789062 25.648438 15.6875 C 25.574219 14.546875 25.726562 13.40625 26.140625 12.355469 C 26.351562 11.832031 26.628906 11.328125 26.992188 10.890625 C 27.214844 10.621094 27.476562 10.378906 27.761719 10.171875 C 27.265625 10.40625 26.808594 10.710938 26.414062 11.082031 C 25.769531 11.679688 25.285156 12.433594 25.03125 13.238281 Z M 23.773438 14.371094 C 23.839844 13.863281 23.976562 13.371094 24.179688 12.914062 C 24.589844 11.988281 25.242188 11.199219 26.027344 10.613281 C 26.265625 10.433594 26.515625 10.28125 26.777344 10.140625 C 24.105469 10.480469 22.371094 11.894531 21.839844 14.179688 C 22.441406 14.09375 23.117188 14.125 23.773438 14.371094 Z M 32.886719 11.640625 C 32.578125 11.414062 32.257812 11.210938 31.917969 11.027344 C 30.375 10.652344 29.765625 11.5 29.53125 12.289062 C 29.464844 12.519531 29.421875 12.769531 29.410156 13.035156 C 29.933594 12.527344 30.617188 12.125 31.417969 11.878906 C 31.914062 11.726562 32.40625 11.652344 32.886719 11.640625 " fill-opacity="1" fill-rule="nonzero"/><path fill="#204473" d="M 23.882812 32.636719 C 23.054688 32.636719 22.382812 33.308594 22.382812 34.136719 C 22.382812 34.964844 23.054688 35.636719 23.882812 35.636719 C 24.710938 35.636719 25.378906 34.964844 25.378906 34.136719 C 25.378906 33.308594 24.710938 32.636719 23.882812 32.636719 Z M 42.535156 26.6875 C 42.007812 26.6875 41.582031 27.117188 41.582031 27.644531 C 41.582031 28.171875 42.007812 28.597656 42.535156 28.597656 C 43.0625 28.597656 43.492188 28.171875 43.492188 27.644531 C 43.492188 27.117188 43.0625 26.6875 42.535156 26.6875 Z M 47.460938 30.261719 C 47.175781 30.09375 46.824219 30.101562 46.542969 30.277344 C 46.253906 30.460938 45.851562 30.589844 45.457031 30.675781 C 45.824219 29.238281 46.015625 27.746094 46.015625 26.238281 C 46.015625 16.351562 37.964844 8.308594 28.070312 8.304688 C 28.070312 8.304688 28.070312 8.308594 28.066406 8.308594 C 28.066406 8.308594 28.066406 8.304688 28.066406 8.304688 C 23.222656 8.304688 20.101562 11.015625 19.914062 15.375 C 19.902344 15.6875 20.058594 15.980469 20.320312 16.148438 C 20.582031 16.316406 20.917969 16.332031 21.199219 16.191406 C 21.519531 16.023438 23.175781 15.289062 24.199219 16.949219 C 25.023438 18.28125 26.390625 19.238281 27.949219 19.574219 C 28.34375 19.660156 28.746094 19.703125 29.140625 19.703125 C 30.246094 19.703125 31.328125 19.371094 32.265625 18.734375 C 32.542969 18.546875 32.691406 18.21875 32.644531 17.886719 C 32.597656 17.554688 32.367188 17.277344 32.046875 17.175781 C 31.109375 16.867188 30.4375 16.226562 30.003906 15.480469 C 30.128906 14.464844 31.09375 13.816406 31.933594 13.558594 C 32.972656 13.242188 34.488281 13.324219 35.378906 14.589844 C 35.925781 15.679688 36.234375 16.910156 36.234375 18.210938 C 36.234375 20.097656 35.589844 21.832031 34.511719 23.214844 C 33.289062 22.996094 33.128906 21.761719 33.113281 21.5 C 33.097656 21.214844 32.941406 20.953125 32.699219 20.804688 C 32.453125 20.652344 32.152344 20.632812 31.890625 20.742188 C 28.746094 22.09375 27.679688 25.003906 27.339844 26.394531 C 21.386719 26.628906 16.007812 29.738281 12.851562 34.816406 C 12.671875 35.101562 12.671875 35.460938 12.851562 35.746094 C 16.136719 41.03125 21.824219 44.183594 28.066406 44.183594 C 34.152344 44.183594 39.710938 41.183594 43.027344 36.140625 C 46.644531 35.878906 47.792969 32.753906 47.890625 31.070312 C 47.910156 30.738281 47.742188 30.429688 47.460938 30.261719 Z M 24.179688 12.914062 C 23.976562 13.371094 23.839844 13.863281 23.773438 14.371094 C 23.117188 14.125 22.441406 14.09375 21.839844 14.179688 C 22.371094 11.894531 24.105469 10.480469 26.777344 10.140625 C 26.515625 10.28125 26.265625 10.433594 26.027344 10.613281 C 25.242188 11.199219 24.589844 11.988281 24.179688 12.914062 Z M 25.648438 15.6875 C 25.652344 15.789062 25.664062 15.894531 25.675781 15.996094 C 25.429688 15.601562 25.152344 15.28125 24.859375 15.027344 C 24.785156 14.441406 24.84375 13.828125 25.03125 13.238281 C 25.285156 12.433594 25.769531 11.679688 26.414062 11.082031 C 26.808594 10.710938 27.265625 10.40625 27.761719 10.171875 C 27.476562 10.378906 27.214844 10.621094 26.992188 10.890625 C 26.628906 11.328125 26.351562 11.832031 26.140625 12.355469 C 25.726562 13.40625 25.574219 14.546875 25.648438 15.6875 Z M 28.316406 17.855469 C 28.226562 17.839844 28.144531 17.8125 28.054688 17.789062 C 27.574219 17.144531 27.230469 16.34375 27.046875 15.5 C 26.84375 14.574219 26.820312 13.582031 27.039062 12.640625 C 27.253906 11.707031 27.726562 10.800781 28.539062 10.253906 C 28.625 10.195312 28.714844 10.144531 28.804688 10.097656 C 28.820312 10.097656 28.832031 10.101562 28.84375 10.101562 C 28.398438 10.527344 28.054688 11.09375 27.847656 11.789062 C 27.460938 13.082031 27.621094 14.632812 28.28125 15.976562 C 28.3125 16.058594 28.347656 16.136719 28.398438 16.207031 C 28.742188 16.839844 29.203125 17.417969 29.773438 17.890625 C 29.296875 17.972656 28.804688 17.960938 28.316406 17.855469 Z M 31.417969 11.878906 C 30.617188 12.125 29.933594 12.527344 29.410156 13.035156 C 29.421875 12.769531 29.464844 12.519531 29.53125 12.289062 C 29.765625 11.5 30.375 10.652344 31.917969 11.027344 C 32.257812 11.210938 32.578125 11.414062 32.886719 11.640625 C 32.40625 11.652344 31.914062 11.726562 31.417969 11.878906 Z M 36.886719 25.363281 C 38 23.5 38.597656 21.363281 38.601562 19.261719 C 38.601562 17.164062 38.039062 15.074219 36.890625 13.378906 C 36.605469 12.957031 36.289062 12.558594 35.941406 12.195312 C 35.902344 12.144531 35.863281 12.09375 35.824219 12.042969 C 35.886719 12.078125 35.949219 12.113281 36.007812 12.148438 C 36.839844 13.023438 37.507812 14.03125 37.980469 15.117188 C 38.652344 16.652344 38.953125 18.320312 38.929688 19.964844 C 38.90625 21.605469 38.558594 23.230469 37.921875 24.695312 C 37.363281 25.976562 36.578125 27.136719 35.605469 28.042969 C 35.191406 27.921875 34.746094 28.113281 34.558594 28.507812 L 33.859375 30 C 33.710938 29.722656 33.554688 29.460938 33.386719 29.210938 C 34.777344 28.152344 36.003906 26.867188 36.886719 25.363281 Z M 40.101562 19.910156 C 39.996094 18.835938 39.757812 17.777344 39.394531 16.773438 C 39.933594 17.972656 40.3125 19.238281 40.496094 20.527344 C 40.757812 22.34375 40.621094 24.203125 40.066406 25.914062 C 39.628906 27.289062 38.921875 28.550781 38.027344 29.660156 C 37.878906 29.503906 37.726562 29.351562 37.570312 29.214844 C 38.488281 28.027344 39.152344 26.683594 39.574219 25.300781 C 40.113281 23.539062 40.28125 21.699219 40.101562 19.910156 Z M 37.648438 34.269531 L 34.800781 33.75 C 34.792969 33.296875 34.753906 32.839844 34.671875 32.390625 L 35.769531 30.0625 C 36.6875 30.621094 38.074219 31.882812 37.648438 34.269531 Z M 31.65625 22.863281 C 31.921875 23.515625 32.394531 24.183594 33.152344 24.59375 C 32.03125 25.488281 30.671875 26.09375 29.1875 26.300781 C 29.503906 25.308594 30.191406 23.84375 31.65625 22.863281 Z M 27.363281 29.644531 C 28.867188 29.574219 30.363281 29.726562 31.820312 30.042969 C 31.996094 30.28125 32.15625 30.539062 32.300781 30.8125 C 31.097656 30.523438 29.878906 30.328125 28.644531 30.253906 C 26.828125 30.140625 24.992188 30.300781 23.242188 30.75 C 21.492188 31.191406 19.835938 31.914062 18.304688 32.816406 C 17.058594 33.554688 15.894531 34.40625 14.796875 35.332031 C 15.855469 34.433594 16.953125 33.589844 18.105469 32.839844 C 19.527344 31.917969 21.03125 31.144531 22.589844 30.589844 C 24.148438 30.039062 25.757812 29.714844 27.363281 29.644531 Z M 14.640625 35.28125 C 16.328125 32.757812 18.644531 30.8125 21.3125 29.59375 C 19.992188 30.355469 18.777344 31.257812 17.652344 32.246094 C 16.570312 33.191406 15.582031 34.21875 14.644531 35.289062 C 14.644531 35.285156 14.640625 35.285156 14.640625 35.28125 Z M 43.050781 30.792969 C 42.523438 30.792969 42.097656 31.21875 42.097656 31.746094 C 42.097656 32.226562 42.453125 32.621094 42.917969 32.6875 C 42.597656 33.421875 42.222656 34.136719 41.792969 34.816406 C 38.828125 39.582031 33.695312 42.429688 28.066406 42.429688 C 22.691406 42.429688 17.777344 39.835938 14.761719 35.457031 C 15.953125 34.601562 17.199219 33.828125 18.507812 33.195312 C 20.074219 32.433594 21.730469 31.871094 23.421875 31.585938 C 25.113281 31.296875 26.835938 31.289062 28.519531 31.53125 C 30.035156 31.746094 31.515625 32.164062 32.949219 32.707031 C 33.273438 34.507812 32.859375 36.40625 31.765625 37.800781 C 31.464844 38.183594 31.53125 38.734375 31.914062 39.035156 C 32.074219 39.160156 32.265625 39.222656 32.457031 39.222656 C 32.714844 39.222656 32.972656 39.105469 33.144531 38.886719 C 33.914062 37.90625 34.417969 36.738281 34.652344 35.507812 L 38.148438 36.144531 C 38.199219 36.15625 38.253906 36.160156 38.304688 36.160156 C 38.683594 36.160156 39.027344 35.914062 39.144531 35.539062 C 39.710938 33.703125 39.519531 32.214844 38.96875 31.054688 C 40.046875 29.621094 40.855469 27.984375 41.269531 26.25 C 41.742188 24.3125 41.730469 22.285156 41.316406 20.378906 C 40.664062 17.402344 39.066406 14.703125 36.886719 12.683594 C 40.179688 14.828125 42.644531 18.132812 43.695312 22.015625 C 43.324219 22.144531 43.050781 22.496094 43.050781 22.914062 C 43.050781 23.441406 43.480469 23.867188 44.007812 23.867188 C 44.035156 23.867188 44.058594 23.863281 44.082031 23.859375 C 44.195312 24.636719 44.257812 25.429688 44.257812 26.238281 C 44.257812 27.847656 44.019531 29.425781 43.5625 30.941406 C 43.414062 30.847656 43.238281 30.792969 43.050781 30.792969 Z M 44.222656 34.050781 C 44.460938 33.5625 44.675781 33.0625 44.867188 32.554688 C 45.113281 32.527344 45.425781 32.480469 45.769531 32.410156 C 45.5 33.015625 45.03125 33.664062 44.222656 34.050781 " fill-opacity="1" fill-rule="nonzero"/></svg>